<?xml version="1.0" encoding="UTF-8"?>
<svg width="33px" height="33px" viewBox="0 0 33 33" version="1.1" xmlns="http://www.w3.org/2000/svg" xmlns:xlink="http://www.w3.org/1999/xlink">
    <!-- Generator: Sketch 61.2 (89653) - https://sketch.com -->
    <title>fav</title>
    <desc>Created with Sketch.</desc>
    <g id="Page-2" stroke="none" stroke-width="1" fill="none" fill-rule="evenodd">
        <g id="Artboard" transform="translate(-234.000000, -421.000000)" fill="#90B0C9">
            <path d="M250.162714,421 C259.075286,421 266.326286,428.251 266.326286,437.163571 C266.326286,446.076143 259.075286,453.327143 250.162714,453.327143 C241.251,453.327143 234,446.076143 234,437.163571 C234,428.251 241.251,421 250.162714,421 Z M264.554429,438.153131 L235.771426,438.153131 C235.81724,438.826259 235.909434,439.486857 236.04483,440.131745 L249.173871,440.131857 L249.173586,451.555316 C249.500461,451.577555 249.830292,451.588857 250.162714,451.588857 C250.495427,451.588857 250.825545,451.577536 251.152703,451.555257 L251.152629,440.131729 L264.281008,440.131745 C264.393844,439.594338 264.476678,439.046022 264.52767,438.488636 L264.554429,438.153131 Z M247.19456,451.281865 L247.194729,442.110571 L243.539014,442.110571 L243.539014,446.232571 L241.5603,446.232571 L241.5603,442.110571 L236.611561,442.110308 C238.303579,446.731525 242.295724,450.253269 247.19456,451.281865 Z M256.787057,442.110443 L253.131315,442.110443 L253.131315,451.281775 C258.030019,450.253064 262.022179,446.73139 263.714243,442.110308 L258.765771,442.110443 L258.765771,446.232871 L256.787057,446.232871 L256.787057,442.110443 Z M250.162714,422.738286 C249.830292,422.738286 249.500461,422.749588 249.173586,422.771829 L249.173871,434.195586 L236.04483,434.195523 C235.909434,434.840391 235.81724,435.500964 235.771426,436.174061 L264.554429,436.174061 C264.508612,435.500964 264.416412,434.840391 264.281008,434.195523 L251.152629,434.195414 L251.152703,422.771888 C250.825545,422.749608 250.495427,422.738286 250.162714,422.738286 Z M253.131315,423.045386 L253.131315,432.2167 L256.787057,432.2167 L256.787057,428.095129 L258.765771,428.095129 L258.765771,432.2167 L263.714087,432.216579 C262.021933,427.595782 258.029868,424.074124 253.131315,423.045386 Z M236.611718,432.216579 L241.5603,432.216871 L241.5603,428.094871 L243.539014,428.094871 L243.539014,432.216871 L247.194729,432.216871 L247.19456,423.045296 C242.295875,424.073919 238.303825,427.595648 236.611718,432.216579 Z" id="fav"></path>
        </g>
    </g>
</svg>