<?xml version="1.0" encoding="UTF-8"?>
<svg width="56px" height="64px" viewBox="0 0 56 64" version="1.1" xmlns="http://www.w3.org/2000/svg" xmlns:xlink="http://www.w3.org/1999/xlink">
    <!-- Generator: sketchtool 61.2 (101010) - https://sketch.com -->
    <title>76BAFCF0-2201-40D2-859F-9B86DB7DE023@1x</title>
    <desc>Created with sketchtool.</desc>
    <g id="Page-1" stroke="none" stroke-width="1" fill="none" fill-rule="evenodd">
        <g id="v4" transform="translate(-552.000000, -2012.000000)" fill="#90B0C9" fill-rule="nonzero">
            <g id="platform" transform="translate(0.000000, 1173.000000)">
                <g id="compliance" transform="translate(552.000000, 839.000000)">
                    <g id="dashboardIcon">
                        <path d="M46,48.5 C46.7796961,48.5 47.4204487,49.0948881 47.4931334,49.85554 L47.5,50 L47.5,54.5 L54,54.5 C54.8284271,54.5 55.5,55.1715729 55.5,56 C55.5,56.7796961 54.9051119,57.4204487 54.14446,57.4931334 L54,57.5 L47.5,57.5 L47.5,62 C47.5,62.8284271 46.8284271,63.5 46,63.5 C45.2203039,63.5 44.5795513,62.9051119 44.5068666,62.14446 L44.5,62 L44.5,57.5 L2,57.5 C1.17157288,57.5 0.5,56.8284271 0.5,56 C0.5,55.2203039 1.09488808,54.5795513 1.85553999,54.5068666 L2,54.5 L44.5,54.5 L44.5,50 C44.5,49.1715729 45.1715729,48.5 46,48.5 Z M28,24.5 C28.7796961,24.5 29.4204487,25.0948881 29.4931334,25.85554 L29.5,26 L29.5,30.5 L54,30.5 C54.8284271,30.5 55.5,31.1715729 55.5,32 C55.5,32.7796961 54.9051119,33.4204487 54.14446,33.4931334 L54,33.5 L29.5,33.5 L29.5,38 C29.5,38.8284271 28.8284271,39.5 28,39.5 C27.2203039,39.5 26.5795513,38.9051119 26.5068666,38.14446 L26.5,38 L26.5,33.5 L2,33.5 C1.17157288,33.5 0.5,32.8284271 0.5,32 C0.5,31.2203039 1.09488808,30.5795513 1.85553999,30.5068666 L2,30.5 L26.5,30.5 L26.5,26 C26.5,25.1715729 27.1715729,24.5 28,24.5 Z M4,0.5 C4.77969612,0.5 5.42044868,1.09488808 5.49313342,1.85553999 L5.5,2 L5.5,6.5 L54,6.5 C54.8284271,6.5 55.5,7.17157288 55.5,8 C55.5,8.77969612 54.9051119,9.42044868 54.14446,9.49313342 L54,9.5 L5.5,9.5 L5.5,14 C5.5,14.8284271 4.82842712,15.5 4,15.5 C3.22030388,15.5 2.57955132,14.9051119 2.50686658,14.14446 L2.5,14 L2.5,2 C2.5,1.17157288 3.17157288,0.5 4,0.5 Z" id="Combined-Shape"></path>
                    </g>
                </g>
            </g>
        </g>
    </g>
</svg>