<?xml version="1.0" encoding="UTF-8"?>
<svg width="63px" height="63px" viewBox="0 0 63 63" version="1.1" xmlns="http://www.w3.org/2000/svg" xmlns:xlink="http://www.w3.org/1999/xlink">
    <!-- Generator: sketchtool 61.2 (101010) - https://sketch.com -->
    <title>D804F644-E420-4A7F-8115-C3E5BAA3C2A1@1x</title>
    <desc>Created with sketchtool.</desc>
    <g id="Page-1" stroke="none" stroke-width="1" fill="none" fill-rule="evenodd">
        <g id="v4" transform="translate(-120.000000, -2012.000000)" fill="#90B0C9" fill-rule="nonzero">
            <g id="platform" transform="translate(0.000000, 1173.000000)">
                <g id="workflow" transform="translate(120.000000, 839.000000)">
                    <g id="dashboardIcon">
                        <path d="M39.4458058,17.2156618 L39.349,17.582 C40.066065,18.1273251 40.5222621,19.0130172 40.7693027,20.0901837 L40.8131836,20.2943593 C40.8991716,20.7223886 40.9510249,21.1651258 40.9777657,21.6226911 C40.9957774,21.9308908 41,22.1607904 41,22.5 C41,25.9735214 39.3801742,29.0772135 36.7498158,29.8277765 L36.689,29.843 L36.6316862,30.0349411 C35.9225213,32.2593752 34.7223011,34.2982983 33.1180715,35.9993803 L33,36.121 L32.9997385,37.4719913 C33.016391,38.3636603 33.5460535,39.15946 34.3487811,39.5234676 L34.478,39.5756731 L36.1964029,36.5579524 C36.5898223,35.8668102 37.4472071,35.6097338 38.1488796,35.9474812 L38.2784672,36.0178187 L40.159,37.159 L40.1892466,37.1356465 C40.7184429,36.7362195 41.2817785,36.3841347 41.8727091,36.0834825 L41.8727091,36.0834825 L42,36.021 L42,33.5 C42,32.7203039 42.5948881,32.0795513 43.35554,32.0068666 L43.35554,32.0068666 L43.5,32 L51.5,32 C52.3284271,32 53,32.6715729 53,33.5 L53,33.5 L53,36.035 L53.1188591,36.095654 C53.6949771,36.398711 54.2430685,36.7523184 54.7566562,37.1522973 L54.7566562,37.1522973 L54.768,37.162 L56.7414208,36.005953 C57.4201249,35.608092 58.2816743,35.8046196 58.7254346,36.4347591 L58.7254346,36.4347591 L58.8035971,36.5579524 L62.5035971,43.0579524 C62.9052797,43.7636111 62.6725331,44.6607841 61.9784672,45.0821813 L61.9784672,45.0821813 L60.026,46.267 L60.0627466,46.6482369 C60.0748771,46.8095195 60.0840298,46.9717975 60.0901947,47.1352391 L60.0901947,47.1352391 L60.0997153,47.6292229 C60.0940777,47.9185442 60.0785558,48.2074611 60.0532024,48.4954705 L60.0532024,48.4954705 L60.03,48.711 L62.2532033,50.0028166 C62.9233893,50.3919569 63.1804199,51.2210934 62.8687397,51.9138872 L62.8687397,51.9138872 L62.8035971,52.0420476 L59.1035971,58.5420476 C58.6912873,59.2663756 57.767561,59.5156917 57.0467967,59.0971834 L57.0467967,59.0971834 L54.884,57.842 L54.5265253,58.118653 C54.0924382,58.4387607 53.6354467,58.7269153 53.1591579,58.9807497 L53.1591579,58.9807497 L53,59.061 L53,61.5 C53,62.2796961 52.4051119,62.9204487 51.64446,62.9931334 L51.64446,62.9931334 L51.5,63 L43.5,63 C42.6715729,63 42,62.3284271 42,61.5 L42,61.5 L42,59.077 L41.8323451,58.9947285 C41.221082,58.6799667 40.6398072,58.3100645 40.0957822,57.889643 L40.0957822,57.889643 L40.04,57.845 L37.9717436,59.0862394 C37.2922926,59.49391 36.42237,59.3002615 35.9751528,58.6660799 L35.9751528,58.6660799 L35.8964029,58.5420476 L32.741,52.9996731 L1.5,53 C0.671572875,53 -5.68434189e-14,52.3284271 -5.68434189e-14,51.5 C-5.68434189e-14,51.0929938 0.0690867117,50.4653337 0.269099886,49.686559 C0.594739378,48.4186435 1.1793957,47.1539614 2.08737766,45.9755167 C3.81616903,43.7317662 6.48671101,42.0997666 10.2009035,41.3109337 L10.6178916,41.2267672 L11.0069278,41.1511112 L11.750712,40.9994875 C14.8755221,40.341631 16.7299416,39.673804 17.5841067,39.0230934 C17.9488532,38.7452263 18.0195023,38.6462713 18.016209,38.1749834 L18.000303,37.5696546 L18,36.12 L17.8544741,35.9680126 C16.2814903,34.2859196 15.0989225,32.2794041 14.3889332,30.0922505 L14.311,29.843 L14.2501842,29.8277765 C11.6855848,29.0959776 10.0816229,26.1272353 10.0030277,22.7597897 L10,22.5 C10,22.1607904 10.0042226,21.9308908 10.0222343,21.6226911 C10.0489751,21.1651258 10.1008284,20.7223886 10.1868164,20.2943593 C10.4217187,19.1250678 10.889335,18.1612555 11.6475345,17.584439 L11.745,17.514 L11.6883284,17.2160597 C10.4563187,10.4645949 12.213112,4.56857929 16.8124109,4.03871351 L17.021,4.019 L17.0359725,4.00961815 C28.887881,-3.62521305 42.8786147,3.45350732 39.4458058,17.2156618 Z M50,34.999 L45,34.999 L45,37 C45,37.574086 44.6729874,38.0932078 44.1657154,38.3442175 L44.1657154,38.3442175 L44.0352269,38.4012609 C43.0306221,38.7849807 42.1101594,39.3602698 41.3250228,40.0951385 C40.833832,40.554881 40.0966159,40.6313389 39.5215328,40.2821813 L39.5215328,40.2821813 L38.04,39.383 L36.5399735,42.0212144 C36.5102745,42.12238 36.4693902,42.2219423 36.4168434,42.3182782 C36.3553647,42.430989 36.2815298,42.5326686 36.197938,42.6225527 L35.844,43.24 L37.3442084,44.0976353 C37.8572714,44.3908142 38.1463928,44.9547302 38.0940019,45.5344372 L38.0940019,45.5344372 L38.0737213,45.6795455 C37.8518119,46.8494182 37.8518119,48.0505818 38.0737213,49.2204545 C38.1923141,49.8456579 37.9035132,50.4776486 37.3532033,50.7971834 L37.3532033,50.7971834 L35.539,51.85 L37.744,55.723 L39.4282564,54.7137606 C39.9684191,54.3896629 40.6481342,54.4396691 41.1333071,54.8256575 L41.1333071,54.8256575 L41.2416647,54.9206786 C42.0443147,55.6953247 42.9948784,56.3002289 44.0365626,56.69925 C44.6168502,56.9215314 45,57.4785962 45,58.1 L45,58.1 L45,59.999 L50,59.999 L50,58.1 C50,57.5335996 50.3184351,57.0199166 50.8156001,56.7652014 L50.8156001,56.7652014 L50.9435341,56.7070371 C51.9533453,56.303634 52.871593,55.7010339 53.6435341,54.9351621 C54.1249004,54.4575804 54.8668038,54.3623266 55.4532033,54.7028166 L55.4532033,54.7028166 L57.244,55.742 L59.46,51.85 L57.6467967,50.7971834 C57.1375824,50.5015106 56.852402,49.9384082 56.9064299,49.3608556 L56.9064299,49.3608556 L56.9270704,49.2163129 C57.0315711,48.6737356 57.08952,48.1232214 57.1000016,47.6022122 C57.0991003,46.9910522 57.0410302,46.3813164 56.9265503,45.7809733 C56.8092693,45.1659411 57.0863379,44.5427585 57.6215328,44.2178187 L57.6215328,44.2178187 L59.174,43.274 L56.948,39.362 L55.3585792,40.294047 C54.819366,40.6101375 54.1459414,40.5567514 53.664976,40.1729734 L53.664976,40.1729734 L53.5575491,40.0785621 C52.8057869,39.3519695 51.9188916,38.7797789 50.9470228,38.3943515 C50.3753664,38.1676419 50,37.6149701 50,37 L50,37 L50,34.999 Z M47.5,42 C50.5375661,42 53,44.4624339 53,47.5 C53,50.5375661 50.5375661,53 47.5,53 C44.4624339,53 42,50.5375661 42,47.5 C42,44.4624339 44.4624339,42 47.5,42 Z M18.3375646,6.74438162 C18.0900166,6.91100042 17.7983987,7 17.5,7 C14.7539659,7 13.4242068,12.0121689 14.9552138,18.1361966 C15.1918938,19.0829167 14.4758567,20 13.5,20 C13.4100243,20 13.2673736,20.1917227 13.1280524,20.8852326 C13.0276596,21.3849655 13,21.8582516 13,22.5 C13,24.9686176 14.1155071,26.8736257 15.3737373,26.9939606 L15.5,27 C16.1959568,27 16.8005049,27.4787053 16.9600519,28.1561273 C17.5226316,30.5447889 18.7652102,32.7193015 20.5375167,34.4166907 C20.7960131,34.6642601 20.9562296,34.9948065 20.9922447,35.3476119 L21,35.5 L21.0009847,37.5901886 L21.0075059,37.7986155 C21.1207378,40.9670503 19.1752785,42.5594471 11.9610946,44.0199233 L10.7999716,44.2505655 C7.78375398,44.8945267 5.74551117,46.1430345 4.46380064,47.8065311 C3.96162177,48.4582952 3.59951392,49.1450205 3.35552061,49.8379936 L3.302,50 L32.751,49.9996731 L34.972,48.709 L34.952535,48.5125963 C34.8922073,47.8054877 34.8922073,47.0945123 34.952535,46.3874037 L34.952535,46.3874037 L34.971,46.197 L33.0557916,45.1023647 C32.3796195,44.7159807 32.1181284,43.8829399 32.4309747,43.1867432 L32.4309747,43.1867432 L32.4964029,43.0579524 L32.9855398,42.1974343 C31.2744406,41.3676851 30.1296602,39.6731873 30.0095288,37.7367151 L30,37.5 L30,35.5 C30,35.0898475 30.1679511,34.6975845 30.464761,34.4145139 C32.2396833,32.7217526 33.4819645,30.5477604 34.0392291,28.1591947 C34.187061,27.5255525 34.7241523,27.0649217 35.3619035,27.0063204 L35.5,27 C36.8088863,27 38,25.0509049 38,22.5 C38,21.8582516 37.9723404,21.3849655 37.8719476,20.8852326 C37.7326264,20.1917227 37.5899757,20 37.5,20 C36.4696496,20 35.7460559,18.9850794 36.0819405,18.011014 C38.1726859,11.9478525 36.6464375,7.4411002 32.567729,5.26028788 C28.6120863,3.14527661 22.9440139,3.64388684 18.3375646,6.74438162 Z M47.5,45 C46.1192881,45 45,46.1192881 45,47.5 C45,48.8807119 46.1192881,50 47.5,50 C48.8807119,50 50,48.8807119 50,47.5 C50,46.1192881 48.8807119,45 47.5,45 Z" id="Combined-Shape"></path>
                    </g>
                </g>
            </g>
        </g>
    </g>
</svg>