<?xml version="1.0" encoding="UTF-8"?>
<svg width="182px" height="36px" viewBox="0 0 182 36" version="1.1" xmlns="http://www.w3.org/2000/svg" xmlns:xlink="http://www.w3.org/1999/xlink">
    <!-- Generator: sketchtool 61.2 (101010) - https://sketch.com -->
    <title>37A3C621-B9B8-4201-AC91-2714C821A2E9@1x</title>
    <desc>Created with sketchtool.</desc>
    <g id="Page-1" stroke="none" stroke-width="1" fill="none" fill-rule="evenodd">
        <g id="v4" transform="translate(-120.000000, -180.000000)">
            <g id="intro">
                <g id="introScreen">
                    <g id="logo" transform="translate(120.000000, 180.000000)">
                        <g id="logoMonochrome">
                            <path d="M117.177257,9.04122857 C118.286491,9.04122857 119.324213,9.2374626 120.288681,9.63059557 C121.24228,10.0199297 122.078985,10.5231222 122.797906,11.1410787 C123.018887,11.3310255 123.225301,11.5249585 123.4171,11.7229074 L123.558209,11.8721224 L123.690171,12.0187714 L123.690257,11.0160857 C123.690257,10.6671278 123.789759,10.3517036 123.984787,10.0848542 L124.046157,10.0062716 L124.113234,9.93069382 C124.39908,9.62799805 124.769891,9.4728 125.1984,9.4728 C125.625759,9.4728 125.996769,9.62808128 126.283446,9.93102176 C126.53933,10.2025608 126.680892,10.5363938 126.702709,10.9124832 L126.705686,11.0160857 L126.705686,26.5903714 C126.705686,28.582249 126.29161,30.2764599 125.457823,31.6667068 C124.624651,33.0542753 123.490666,34.112072 122.064037,34.831707 C120.647179,35.5466354 119.040331,35.9032286 117.249257,35.9032286 C116.375738,35.9032286 115.461964,35.7912291 114.508371,35.5680005 C113.555416,35.3454674 112.731088,35.05808 112.037536,34.7054413 C111.405595,34.383726 110.98055,34.0356906 110.778759,33.6360723 L110.741382,33.5554534 L110.710886,33.4764857 L110.701454,33.463229 C110.550792,33.2484241 110.460963,33.0253633 110.440028,32.7981413 L110.435423,32.712746 L110.437371,32.6270086 C110.456449,32.2899529 110.624577,32.0027196 110.907386,31.7911882 C111.256149,31.5193887 111.67624,31.4888067 112.092625,31.6889061 L112.268851,31.770949 C112.523543,31.8869924 112.855738,32.0290969 113.24864,32.19065 L114.205137,32.5153546 C114.605066,32.6523449 115.077725,32.7732911 115.621692,32.8770419 C116.157873,32.9798711 116.712421,33.0313714 117.285257,33.0313714 C119.333455,33.0313714 120.9002,32.455018 122.013424,31.3091806 C123.093569,30.1962105 123.652341,28.7420416 123.688392,26.9237834 L123.690257,26.7343881 L123.689743,26.0232 L123.639561,26.0866936 C123.234369,26.5803073 122.779673,27.0156125 122.276394,27.3916585 L122.085389,27.5298961 L121.909599,27.6495507 C121.202932,28.1163029 120.444864,28.4698797 119.637148,28.7094872 C118.831021,28.9489396 118.02281,29.0688 117.213257,29.0688 C115.478121,29.0688 113.9062,28.627272 112.506996,27.7444893 C111.112226,26.8652364 110.011784,25.6703937 109.210016,24.1662944 C108.408414,22.6642421 108.008829,20.9528006 108.008829,19.0372286 C108.008829,17.1463345 108.408341,15.4413457 109.209253,13.927171 C110.010995,12.4110263 111.105735,11.2157629 112.489764,10.3474848 C113.877282,9.4769031 115.443453,9.04122857 117.177257,9.04122857 Z M97.6831714,1.70862857 C99.1532195,1.70862857 100.576256,1.91570192 101.948932,2.32991128 C103.32061,2.74395911 104.56943,3.32925278 105.687249,4.08284065 C106.214034,4.43455436 106.555892,4.9353342 106.654093,5.54368433 C106.745392,6.11944303 106.607528,6.68115492 106.27198,7.18560227 L106.27198,7.18560227 L106.22562,7.24999351 C105.87653,7.69882441 105.389313,7.96963457 104.831034,8.01864232 C104.36661,8.06161671 103.914172,7.97571326 103.49596,7.76548515 C103.459039,7.74692565 103.423223,7.72624573 103.388691,7.70354905 C102.557519,7.15724964 101.668185,6.7316021 100.71806,6.42543781 C99.7831785,6.12469316 98.7725989,5.97334286 97.6831714,5.97334286 C96.3571624,5.97334286 95.1343587,6.20507961 94.0067118,6.66696562 C92.8845484,7.12660558 91.9123468,7.78518456 91.0812203,8.64868748 C90.2455387,9.51615722 89.5961587,10.5412567 89.1315508,11.7302199 C88.6658183,12.920855 88.4316,14.2388441 88.4316,15.6920571 C88.4316,17.1923148 88.6715263,18.5390987 89.1479711,19.7398797 C89.6222733,20.9381779 90.2809513,21.9610334 91.1259685,22.8163697 C91.9705034,23.6716046 92.9443281,24.3207893 94.0558725,24.7696088 C95.1731004,25.2208783 96.3796041,25.4472 97.6831714,25.4472 C98.7488371,25.4472 99.7475175,25.2961245 100.681938,24.9951444 C101.638586,24.6872713 102.533794,24.269658 103.389201,23.729607 C103.835333,23.4614491 104.336036,23.3568153 104.853745,23.4235407 C105.431128,23.4990862 105.918587,23.802865 106.2566,24.2840149 L106.233286,24.2536286 L106.279329,24.3114004 C106.579934,24.7156839 106.727855,25.1788043 106.701278,25.6635091 L106.68309,25.8462125 L106.664218,25.9566241 C106.545858,26.5442302 106.211507,27.0275988 105.705707,27.3491676 C105.048782,27.7694306 104.284177,28.1581009 103.414158,28.5159939 C102.540294,28.8760092 101.61908,29.164096 100.64965,29.38069 C99.6602731,29.6011717 98.6710351,29.7119143 97.6831714,29.7119143 C95.8186536,29.7119143 94.0609894,29.3733426 92.4190023,28.6958598 C90.7828785,28.0211792 89.3255487,27.0646647 88.0534361,25.8310726 C86.7725881,24.5903972 85.7730548,23.1073279 85.058565,21.391716 C84.3425693,19.674721 83.9868857,17.7726926 83.9868857,15.6920571 C83.9868857,13.6858879 84.3368107,11.8264917 85.0388931,10.1224308 C85.7393184,8.42331957 86.7174922,6.94283085 87.9694124,5.69044455 C89.2190256,4.44129655 90.677712,3.46457139 92.3390655,2.76356468 C94.0068347,2.06012014 95.7911781,1.70862857 97.6831714,1.70862857 Z M43.6958571,2.03207143 C44.2892618,2.03207143 44.825888,2.25156071 45.2446144,2.66945702 C45.634817,3.05965964 45.8518751,3.55340948 45.8790819,4.10060744 L45.882,4.21866397 L45.8813143,14.7830571 L58.5840999,2.77745702 C58.989193,2.37236393 59.4810989,2.13497758 60.0236767,2.10688668 L60.1328571,2.10407143 C60.7178594,2.10407143 61.2439909,2.33502802 61.6509156,2.76504199 C62.0353406,3.17379766 62.2474286,3.67238273 62.2474286,4.21864286 C62.2474286,4.75685746 62.0525115,5.24786787 61.6695604,5.66723474 L61.5846239,5.75599357 L52.8906,13.8937714 L62.3406981,25.8542818 L62.3787075,25.9054483 C62.6681372,26.3202977 62.823,26.7844909 62.823,27.2736429 C62.823,27.9950613 62.5252915,28.6156726 61.9489334,29.0169672 C61.5034151,29.3262013 61.0261656,29.4962143 60.5288571,29.4962143 C59.9245491,29.4962143 59.3897868,29.2460998 58.9751418,28.7847779 L58.8988158,28.6958145 L49.5850286,16.9884857 L45.8813143,20.4556286 L45.882,27.1656045 L45.8789553,27.2463587 C45.8362064,27.8121987 45.6070422,28.3164009 45.2078617,28.7155807 C44.789888,29.132725 44.2532618,29.3522143 43.6598571,29.3522143 C43.0385019,29.3522143 42.485322,29.1308104 42.0725428,28.693698 C41.703566,28.3038357 41.5013264,27.817958 41.476001,27.2813827 L41.4732857,27.1656429 L41.4732857,4.21864286 C41.4732857,3.62447373 41.6930384,3.08751849 42.1110999,2.66945702 C42.5333905,2.24716642 43.0827691,2.03207143 43.6958571,2.03207143 Z M82.5404143,1.88811429 C83.154842,1.88811429 83.7030393,2.13087113 84.1135227,2.58879161 C84.4851258,3.00586512 84.6909857,3.50066268 84.6909857,4.03868571 C84.6909857,4.27265098 84.6549501,4.50023279 84.5820035,4.71907261 C84.5321598,4.86860379 84.4661482,5.01671164 84.3850567,5.16410378 L84.3214276,5.27452474 L84.26993,5.35219135 L76.4534571,16.0944857 L76.4542714,27.2016857 C76.4542714,27.7014775 76.2858847,28.1608516 75.9717234,28.5437244 L75.8966472,28.6307053 L75.8164573,28.7148716 C75.3987136,29.1326152 74.8617142,29.3522571 74.2677,29.3522571 C73.6650567,29.3522571 73.1233804,29.1256398 72.7156145,28.6929252 C72.3514643,28.3073544 72.1460867,27.8334727 72.1203215,27.3137722 L72.1175571,27.201722 L72.1171714,16.1562 L64.2671312,5.42646819 L64.215279,5.35809249 C64.085463,5.17802897 63.9825821,4.98561423 63.910792,4.78635217 C63.8203583,4.54066062 63.7728429,4.29051197 63.7728429,4.03868571 C63.7728429,3.40009747 64.0476208,2.83744573 64.5485585,2.43208775 C64.9820907,2.08187041 65.4710556,1.88811429 65.9954143,1.88811429 C66.6794712,1.88811429 67.2706209,2.20033905 67.6927169,2.74185976 L67.7579477,2.82925644 L74.3187429,11.7702 L80.7332116,2.84004281 C81.1250217,2.29192919 81.6749576,1.9610652 82.3164566,1.89884415 L82.4305993,1.8906631 L82.5404143,1.88811429 Z M138.974143,9.04122857 C140.058232,9.04122857 141.077409,9.23119288 142.028706,9.61143977 C142.975978,9.99025823 143.80618,10.50997 144.517243,11.17021 C144.681174,11.3226191 144.837096,11.4801616 144.985081,11.6430192 L145.130424,11.8076552 L145.198886,11.8897714 L145.199571,11.0160857 C145.199571,10.6743317 145.29008,10.3650706 145.469508,10.1014061 L145.532608,10.0152247 L145.595677,9.9398997 C145.872834,9.62871725 146.254033,9.4728 146.707286,9.4728 C147.134934,9.4728 147.505565,9.62798728 147.792332,9.93102176 C148.048311,10.2026619 148.190154,10.5365555 148.212017,10.9125216 L148.215,11.0160857 L148.215,27.2019429 C148.215,27.6053365 148.060379,27.9658124 147.765474,28.2601315 C147.4708,28.5548057 147.110429,28.7092286 146.707286,28.7092286 C146.254033,28.7092286 145.872834,28.5533113 145.595677,28.2421289 C145.355804,27.972807 145.222859,27.6534461 145.202368,27.299396 L145.199571,27.2019884 L145.198886,26.1509143 L145.078308,26.2924124 C144.980626,26.4035055 144.878971,26.513087 144.77335,26.6211588 L144.611944,26.7821347 L144.444595,26.940848 C143.759681,27.5749941 142.956416,28.0872519 142.037158,28.4771038 C141.107883,28.8719207 140.097826,29.0688 139.010143,29.0688 C137.320024,29.0688 135.793385,28.6258086 134.441377,27.7405871 C133.093689,26.8589388 132.035497,25.6495761 131.27129,24.1202671 C130.509122,22.596823 130.128857,20.8889185 130.128857,19.0012286 C130.128857,17.0650739 130.515921,15.3488297 131.292497,13.8574825 C132.069672,12.3658798 133.127581,11.1883374 134.462684,10.3317288 C135.803618,9.47199301 137.311237,9.04122857 138.974143,9.04122857 Z M172.639029,9.04135714 C173.744558,9.04135714 174.820865,9.23639487 175.864635,9.62567385 C176.913393,10.018054 177.844345,10.6007337 178.653746,11.3717211 C179.461545,12.1425149 180.116184,13.0804784 180.618361,14.1843704 C181.123278,15.2957299 181.386826,16.5754524 181.412314,18.0297857 C181.412314,18.4369059 181.25486,18.7953953 180.954319,19.0786423 C180.684432,19.3340424 180.361869,19.476887 180.003271,19.4989209 L179.904591,19.5019286 L166.748314,19.5012 L166.7604,19.7022531 C166.825758,20.6394614 167.031605,21.5084293 167.377777,22.3117257 L167.467244,22.5111831 L167.555554,22.6939512 C168.095392,23.7744299 168.868698,24.6262486 169.880534,25.2555319 C170.887436,25.8823957 172.115728,26.1979286 173.574171,26.1979286 C174.341543,26.1979286 175.036805,26.0857088 175.660031,25.8628439 C176.289537,25.6382787 176.843381,25.341655 177.32357,24.973231 C177.756555,24.6412995 178.120224,24.2977567 178.415687,23.9429448 L178.52329,23.8093627 L178.590128,23.7408988 C178.924603,23.4673366 179.267416,23.3205 179.617029,23.3205 C179.998718,23.3205 180.333379,23.4652664 180.59483,23.7435252 C180.847314,24.0128411 180.980314,24.3326452 180.980314,24.6842143 C180.980314,25.0654878 180.831937,25.4062902 180.551897,25.6883707 L180.504171,25.7334857 L180.377223,25.8822146 C179.741041,26.6062283 178.958536,27.2488364 178.032041,27.8095068 L177.815679,27.9374376 L177.594212,28.0624578 C176.378718,28.7331063 175.048223,29.0689286 173.610171,29.0689286 C171.692337,29.0689286 169.990014,28.6557932 168.509888,27.8273712 C167.025684,26.99832 165.866016,25.8387648 165.035354,24.3537371 C164.207071,22.8718069 163.794171,21.1454087 163.794171,19.1813571 C163.794171,17.0730343 164.212212,15.2625296 165.053245,13.756744 C165.891518,12.2550989 166.986065,11.0915246 168.334428,10.2723286 C169.683383,9.45312733 171.121352,9.04135714 172.639029,9.04135714 Z M155.950457,4.47334286 C156.377952,4.47334286 156.748451,4.62841038 157.036223,4.93187394 C157.290576,5.2023249 157.433169,5.52465682 157.455168,5.88257348 L157.458171,5.98105714 L157.458171,9.54462857 L160.626171,9.54462857 C160.999363,9.54462857 161.328485,9.67255314 161.593061,9.92090126 L161.657848,9.98549277 C161.92484,10.2692088 162.061886,10.6204757 162.061886,11.0163429 C162.061886,11.3950479 161.920327,11.7309933 161.649126,12.0021942 C161.398096,12.2537823 161.083941,12.3918854 160.725124,12.4131554 L160.626171,12.4160571 L157.458171,12.4160571 L157.458171,24.0363429 C157.458171,24.6003643 157.525712,25.0190896 157.64797,25.2864668 L157.677149,25.3454798 C157.809933,25.5939354 157.966663,25.7426206 158.150272,25.8115771 C158.391538,25.901693 158.628441,25.9460571 158.863886,25.9460571 C158.976398,25.9460571 159.076775,25.9326141 159.166694,25.906421 L159.2322,25.8843964 C159.438782,25.8052921 159.664249,25.7664857 159.9066,25.7664857 C160.243529,25.7664857 160.542007,25.9012658 160.778226,26.1550067 C161.010882,26.4055594 161.126743,26.7259277 161.126743,27.0937714 C161.126743,27.5957412 160.845634,28.0086934 160.341583,28.3077447 C159.888963,28.5767879 159.357547,28.7094857 158.755886,28.7094857 L158.605219,28.7072593 L158.429454,28.7005873 C158.24106,28.6916961 158.014656,28.6761526 157.749152,28.6540053 C157.259873,28.6132321 156.76375,28.4658334 156.262654,28.2148128 C155.720137,27.944064 155.279898,27.4757247 154.940901,26.8244039 C154.623976,26.2168149 154.462341,25.3912371 154.444421,24.343415 L154.442743,24.1443429 L154.442743,12.4160571 L152.245457,12.4160571 C151.877292,12.4160571 151.547846,12.2922549 151.278006,12.0532128 L151.205907,11.9851688 C150.923133,11.7035824 150.774171,11.3617555 150.774171,10.9807714 C150.774171,10.5754352 150.923903,10.2226986 151.214607,9.949095 C151.47469,9.70434331 151.791895,9.5684389 152.147528,9.54748783 L152.245457,9.54462857 L154.442743,9.54462857 L154.442743,5.98105714 C154.442743,5.61642814 154.564042,5.28617575 154.798538,5.00630416 L154.865291,4.93123668 C155.151049,4.62863465 155.522238,4.47334286 155.950457,4.47334286 Z M117.393257,11.9126571 C116.178923,11.9126571 115.08921,12.2200659 114.115363,12.8354217 C113.137083,13.4542351 112.373474,14.2962014 111.821288,15.3671198 C111.266328,16.4430388 110.988257,17.6642553 110.988257,19.0372286 C110.988257,20.4104485 111.266614,21.6386132 111.822179,22.7266445 C112.374357,23.8092368 113.13767,24.656593 114.115296,25.2749929 C115.088803,25.8905343 116.178363,26.1978 117.393257,26.1978 C118.632404,26.1978 119.728467,25.8956757 120.690477,25.2917713 C121.656078,24.6859122 122.419505,23.8495438 122.984811,22.7758659 C123.550159,21.7010158 123.834257,20.4565522 123.834257,19.0372286 C123.834257,17.6183594 123.550171,16.3738437 122.984957,15.2984392 C122.42005,14.2263267 121.657581,13.3966196 120.693559,12.8021729 C119.730837,12.209421 118.633532,11.9126571 117.393257,11.9126571 Z M139.225714,11.9126571 C138.060682,11.9126571 137.020919,12.2128698 136.096357,12.814512 C135.166628,13.4191159 134.438419,14.2482509 133.908183,15.3083201 C133.375942,16.3728031 133.108714,17.6022317 133.108714,19.0012286 C133.108714,20.3788077 133.370986,21.6174311 133.894176,22.719912 C134.412154,23.8134643 135.13405,24.6639779 136.063484,25.2799978 C136.987153,25.8921973 138.037346,26.1978 139.225714,26.1978 C140.413422,26.1978 141.456877,25.8925702 142.368305,25.2813775 C143.286771,24.6649276 144.009903,23.8128401 144.541259,22.716617 C145.075131,21.6139043 145.343143,20.3760961 145.343143,19.0012286 C145.343143,17.6518915 145.075978,16.4465496 144.543762,15.380495 C144.011819,14.3178219 143.286841,13.4748111 142.365584,12.8452379 C141.45405,12.2232502 140.411571,11.9126571 139.225714,11.9126571 Z M172.639029,11.9847857 C171.973017,11.9847857 171.286907,12.1185782 170.579495,12.388374 C169.88259,12.6533719 169.249909,13.0695388 168.679931,13.6391172 C168.110381,14.2086681 167.643631,14.9398483 167.281771,15.835382 C167.176803,16.0942856 167.086933,16.367847 167.012437,16.6551126 L167.000743,16.7022 L178.304743,16.7022 L178.278292,16.525336 C178.141643,15.6931602 177.84883,14.9732531 177.400237,14.360585 L177.301726,14.2309386 C176.719432,13.4921654 176.023369,12.9352553 175.209752,12.5555402 C174.390532,12.1746009 173.535464,11.9847857 172.639029,11.9847857 Z" id="text" fill="#FFFFFF"></path>
                            <path d="M16.1627143,0 C25.0752857,0 32.3262857,7.251 32.3262857,16.1635714 C32.3262857,25.0761429 25.0752857,32.3271429 16.1627143,32.3271429 C7.251,32.3271429 6.75015599e-14,25.0761429 6.75015599e-14,16.1635714 C6.75015599e-14,7.251 7.251,0 16.1627143,0 Z M30.5544293,17.1531313 L1.77142562,17.1531313 C1.81724013,17.8262592 1.90943448,18.4868567 2.04483002,19.1317446 L15.1738714,19.1318571 L15.1735856,30.5553157 C15.5004611,30.5775553 15.830292,30.5888571 16.1627143,30.5888571 C16.4954274,30.5888571 16.8255453,30.5775355 17.1527031,30.5552573 L17.1526286,19.1317286 L30.2810079,19.1317446 C30.3938444,18.594338 30.4766784,18.046022 30.5276701,17.4886363 L30.5544293,17.1531313 Z M13.1945603,30.281865 L13.1947286,21.1105714 L9.53901429,21.1105714 L9.53901429,25.2325714 L7.5603,25.2325714 L7.5603,21.1105714 L2.61156131,21.1103077 C4.3035792,25.7315247 8.29572378,29.2532686 13.1945603,30.281865 Z M22.7870571,21.1104429 L19.1313148,21.1104429 L19.1313148,30.2817753 C24.0300187,29.2530638 28.0221791,25.7313903 29.7142435,21.1103077 L24.7657714,21.1104429 L24.7657714,25.2328714 L22.7870571,25.2328714 L22.7870571,21.1104429 Z M16.1627143,1.73828571 C15.830292,1.73828571 15.5004611,1.7495883 15.1735856,1.77182933 L15.1738714,13.1955857 L2.04483002,13.1955233 C1.90943448,13.8403914 1.81724013,14.5009639 1.77142562,15.174061 L30.5544293,15.174061 C30.5086119,14.5009639 30.4164117,13.8403914 30.2810079,13.1955233 L17.1526286,13.1954143 L17.1527031,1.77188773 C16.8255453,1.74960809 16.4954274,1.73828571 16.1627143,1.73828571 Z M19.1313148,2.0453859 L19.1313148,11.2167 L22.7870571,11.2167 L22.7870571,7.09512857 L24.7657714,7.09512857 L24.7657714,11.2167 L29.7140869,11.2165792 C28.0219329,6.59578235 24.0298676,3.07412361 19.1313148,2.0453859 Z M2.61171785,11.2165792 L7.5603,11.2168714 L7.5603,7.09487143 L9.53901429,7.09487143 L9.53901429,11.2168714 L13.1947286,11.2168714 L13.1945603,2.04529616 C8.29587486,3.07391878 4.30382542,6.59564797 2.61171785,11.2165792 Z" id="sign" fill="#90B0C9"></path>
                        </g>
                    </g>
                </g>
            </g>
        </g>
    </g>
</svg>