<?xml version="1.0" encoding="UTF-8"?>
<svg width="64px" height="56px" viewBox="0 0 64 56" version="1.1" xmlns="http://www.w3.org/2000/svg" xmlns:xlink="http://www.w3.org/1999/xlink">
    <!-- Generator: sketchtool 61.2 (101010) - https://sketch.com -->
    <title>3C76C29A-04DB-439E-8843-2FA902A9D854@1x</title>
    <desc>Created with sketchtool.</desc>
    <g id="Page-1" stroke="none" stroke-width="1" fill="none" fill-rule="evenodd">
        <g id="v4" transform="translate(-982.000000, -2016.000000)" fill="#90B0C9" fill-rule="nonzero">
            <g id="platform" transform="translate(0.000000, 1173.000000)">
                <g id="white-Labelled" transform="translate(982.000000, 843.000000)">
                    <g id="white-LabelledIcon">
                        <path d="M62,0.5 C62.8284271,0.5 63.5,1.17157288 63.5,2 L63.5,2 L63.5,54 C63.5,54.7796961 62.9051119,55.4204487 62.14446,55.4931334 L62,55.5 L2,55.5 C1.22030388,55.5 0.579551322,54.9051119 0.506866578,54.14446 L0.5,54 L0.5,2 C0.5,1.17157288 1.17157288,0.5 2,0.5 L2,0.5 Z M60.5,15.5 L3.5,15.5 L3.5,52.5 L60.5,52.5 L60.5,15.5 Z M43.0606602,24.9393398 C43.609835,25.4885146 43.6441584,26.357577 43.1636304,26.9467378 L43.0606602,27.0606602 L29.0606602,41.0606602 C28.5114854,41.609835 27.642423,41.6441584 27.0532622,41.1636304 L26.9393398,41.0606602 L19.9393398,34.0606602 C19.3535534,33.4748737 19.3535534,32.5251263 19.9393398,31.9393398 C20.4885146,31.390165 21.357577,31.3558416 21.9467378,31.8363696 L22.0606602,31.9393398 L28,37.879 L40.9393398,24.9393398 C41.5251263,24.3535534 42.4748737,24.3535534 43.0606602,24.9393398 Z M60.5,3.5 L3.5,3.5 L3.5,12.5 L60.5,12.5 L60.5,3.5 Z M8,5.5 C9.38071187,5.5 10.5,6.61928813 10.5,8 C10.5,9.38071187 9.38071187,10.5 8,10.5 C6.61928813,10.5 5.5,9.38071187 5.5,8 C5.5,6.61928813 6.61928813,5.5 8,5.5 Z M15,5.5 C16.3807119,5.5 17.5,6.61928813 17.5,8 C17.5,9.38071187 16.3807119,10.5 15,10.5 C13.6192881,10.5 12.5,9.38071187 12.5,8 C12.5,6.61928813 13.6192881,5.5 15,5.5 Z M22,5.5 C23.3807119,5.5 24.5,6.61928813 24.5,8 C24.5,9.38071187 23.3807119,10.5 22,10.5 C20.6192881,10.5 19.5,9.38071187 19.5,8 C19.5,6.61928813 20.6192881,5.5 22,5.5 Z" id="Combined-Shape"></path>
                    </g>
                </g>
            </g>
        </g>
    </g>
</svg>